<svg xmlns="http://www.w3.org/2000/svg" width="1280" height="800" viewBox="0 0 1280 800" role="img" aria-label="Sudoku Play extension daily Sudoku access">
  <rect width="1280" height="800" fill="#f3f8fe"/>
  <circle cx="112" cy="144" r="126" fill="#dcecff"/>
  <circle cx="1094" cy="162" r="150" fill="#e8f2ff"/>
  <rect x="88" y="96" width="1104" height="608" rx="42" fill="#ffffff" opacity=".84"/>
  <text x="120" y="160" fill="#2f7de1" font-family="'SF Pro Text','Segoe UI',Arial,sans-serif" font-size="28" font-weight="700" letter-spacing="4">DAILY SUDOKU</text>
  <text x="120" y="224" fill="#17324d" font-family="'SF Pro Display','Segoe UI',Arial,sans-serif" font-size="54" font-weight="800">Shared daily puzzle, one click away</text>
  <text x="120" y="274" fill="#5c738b" font-family="'SF Pro Text','Segoe UI',Arial,sans-serif" font-size="28">The toolbar popup makes it easy to build a daily Sudoku habit.</text>

  <rect x="806" y="156" width="314" height="440" rx="34" fill="#ffffff" stroke="#d0e0f2" stroke-width="2"/>
  <text x="840" y="206" fill="#2f7de1" font-family="'SF Pro Text','Segoe UI',Arial,sans-serif" font-size="16" font-weight="700" letter-spacing="3">POPUP ACTION</text>
  <rect x="840" y="238" width="246" height="76" rx="22" fill="#ffffff" stroke="#d3e2f4"/>
  <text x="866" y="270" fill="#17324d" font-family="'SF Pro Text','Segoe UI',Arial,sans-serif" font-size="24" font-weight="700">Daily Sudoku</text>
  <text x="866" y="296" fill="#5c738b" font-family="'SF Pro Text','Segoe UI',Arial,sans-serif" font-size="15">Jump into today&apos;s shared puzzle</text>
  <rect x="840" y="336" width="246" height="226" rx="24" fill="#edf5ff"/>
  <text x="866" y="378" fill="#2f7de1" font-family="'SF Pro Text','Segoe UI',Arial,sans-serif" font-size="15" font-weight="700" letter-spacing="3">TODAY'S PUZZLE ID</text>
  <text x="866" y="430" fill="#17324d" font-family="'SF Pro Display','Segoe UI',Arial,sans-serif" font-size="46" font-weight="800">20260325</text>
  <rect x="866" y="462" width="188" height="22" rx="11" fill="#dbeaff"/>
  <rect x="866" y="500" width="150" height="22" rx="11" fill="#cfe4ff"/>
  <rect x="866" y="538" width="172" height="22" rx="11" fill="#dbeaff"/>

  <rect x="120" y="340" width="606" height="300" rx="34" fill="#ffffff" stroke="#d0e0f2"/>
  <text x="154" y="388" fill="#17324d" font-family="'SF Pro Display','Segoe UI',Arial,sans-serif" font-size="38" font-weight="800">The same puzzle for everyone, every day</text>
  <text x="154" y="432" fill="#5c738b" font-family="'SF Pro Text','Segoe UI',Arial,sans-serif" font-size="24">Use the extension when you want a fast shared challenge instead of choosing a level manually.</text>
  <rect x="154" y="474" width="172" height="42" rx="21" fill="#2f7de1"/>
  <text x="181" y="502" fill="#ffffff" font-family="'SF Pro Text','Segoe UI',Arial,sans-serif" font-size="20" font-weight="700">Daily Sudoku</text>
  <rect x="154" y="544" width="248" height="20" rx="10" fill="#e8f2ff"/>
  <rect x="154" y="578" width="208" height="20" rx="10" fill="#edf5ff"/>
  <rect x="154" y="612" width="264" height="20" rx="10" fill="#e8f2ff"/>
</svg>
