<svg xmlns="http://www.w3.org/2000/svg" width="1400" height="980" viewBox="0 0 1400 980" fill="none">
  <defs>
    <linearGradient id="bg3" x1="110" y1="70" x2="1240" y2="920" gradientUnits="userSpaceOnUse">
      <stop stop-color="#F7FBFF"/>
      <stop offset="1" stop-color="#E9F1FE"/>
    </linearGradient>
    <linearGradient id="cta" x1="904" y1="665" x2="1180" y2="740" gradientUnits="userSpaceOnUse">
      <stop stop-color="#4A8FF0"/>
      <stop offset="1" stop-color="#2369CA"/>
    </linearGradient>
    <filter id="dropB" x="104" y="112" width="1192" height="784" filterUnits="userSpaceOnUse" color-interpolation-filters="sRGB">
      <feFlood flood-opacity="0" result="BackgroundImageFix"/>
      <feColorMatrix in="SourceAlpha" type="matrix" values="0 0 0 0 0 0 0 0 0 0 0 0 0 0 0 0 0 0 127 0" result="hardAlpha"/>
      <feOffset dy="24"/>
      <feGaussianBlur stdDeviation="30"/>
      <feColorMatrix type="matrix" values="0 0 0 0 0.0902 0 0 0 0 0.2196 0 0 0 0 0.3608 0 0 0 0.16 0"/>
      <feBlend mode="normal" in2="BackgroundImageFix" result="effect1_dropShadow_1_1"/>
      <feBlend mode="normal" in="SourceGraphic" in2="effect1_dropShadow_1_1" result="shape"/>
    </filter>
  </defs>
  <rect width="1400" height="980" fill="url(#bg3)"/>
  <text x="126" y="82" fill="#2F7DE1" font-size="38" font-family="Arial, Helvetica, sans-serif" font-weight="700" letter-spacing="4">SUDOKU PLAY EXTENSION</text>
  <text x="126" y="138" fill="#19324D" font-size="68" font-family="Arial, Helvetica, sans-serif" font-weight="700">Full 9x9 Board</text>
  <text x="126" y="184" fill="#5C738B" font-size="28" font-family="Arial, Helvetica, sans-serif">A larger built-in board is available when players want a longer session.</text>

  <g filter="url(#dropB)">
    <rect x="166" y="142" width="1068" height="674" rx="40" fill="#FFFFFF"/>
    <rect x="202" y="176" width="998" height="72" rx="24" fill="#F2F7FF"/>
    <text x="248" y="220" fill="#2F7DE1" font-size="22" font-family="Arial, Helvetica, sans-serif" font-weight="700" letter-spacing="2">BUILT-IN FULL BOARD</text>
    <text x="248" y="272" fill="#19324D" font-size="48" font-family="Arial, Helvetica, sans-serif" font-weight="700">Classic Sudoku</text>
    <text x="248" y="311" fill="#5C738B" font-size="24" font-family="Arial, Helvetica, sans-serif">Play a full 9x9 board without leaving the extension.</text>

    <rect x="232" y="336" width="580" height="580" rx="30" fill="#F7FAFF" stroke="#D6E4F6" stroke-width="4"/>
    <rect x="258" y="362" width="528" height="528" rx="18" fill="#FFFFFF" stroke="#30527D" stroke-width="3"/>
    <g stroke="#C9DBF0" stroke-width="1.8">
      <line x1="316.5" y1="362" x2="316.5" y2="890"/>
      <line x1="374.5" y1="362" x2="374.5" y2="890"/>
      <line x1="490.5" y1="362" x2="490.5" y2="890"/>
      <line x1="548.5" y1="362" x2="548.5" y2="890"/>
      <line x1="664.5" y1="362" x2="664.5" y2="890"/>
      <line x1="722.5" y1="362" x2="722.5" y2="890"/>
      <line x1="258" y1="420.5" x2="786" y2="420.5"/>
      <line x1="258" y1="478.5" x2="786" y2="478.5"/>
      <line x1="258" y1="594.5" x2="786" y2="594.5"/>
      <line x1="258" y1="652.5" x2="786" y2="652.5"/>
      <line x1="258" y1="768.5" x2="786" y2="768.5"/>
      <line x1="258" y1="826.5" x2="786" y2="826.5"/>
    </g>
    <g stroke="#30527D" stroke-width="3.4">
      <line x1="432" y1="362" x2="432" y2="890"/>
      <line x1="606" y1="362" x2="606" y2="890"/>
      <line x1="258" y1="536" x2="786" y2="536"/>
      <line x1="258" y1="710" x2="786" y2="710"/>
    </g>
    <g fill="#19324D" font-size="30" font-family="Arial, Helvetica, sans-serif" font-weight="700">
      <text x="278" y="401">4</text><text x="337" y="401">9</text><text x="568" y="401">6</text><text x="742" y="401">7</text>
      <text x="335" y="459">3</text><text x="394" y="459">6</text><text x="451" y="459">5</text><text x="567" y="459">9</text><text x="626" y="459">4</text>
      <text x="279" y="517">1</text><text x="396" y="517">2</text><text x="452" y="517">7</text><text x="626" y="517">8</text>
      <text x="395" y="575">6</text><text x="510" y="575">3</text><text x="625" y="575">7</text><text x="743" y="575">9</text>
      <text x="279" y="633">8</text><text x="394" y="633">9</text><text x="511" y="633">5</text><text x="625" y="633">4</text>
      <text x="279" y="691">9</text><text x="453" y="691">6</text><text x="510" y="691">8</text><text x="626" y="691">3</text>
      <text x="279" y="749">8</text><text x="337" y="749">7</text><text x="451" y="749">2</text><text x="626" y="749">6</text>
      <text x="280" y="807">5</text><text x="510" y="807">1</text><text x="568" y="807">2</text><text x="683" y="807">6</text>
      <text x="279" y="865">6</text><text x="337" y="865">1</text><text x="683" y="865">2</text><text x="741" y="865">5</text>
    </g>

    <rect x="854" y="336" width="320" height="190" rx="28" fill="#F7FAFF" stroke="#D7E5F7"/>
    <text x="889" y="382" fill="#2F7DE1" font-size="20" font-family="Arial, Helvetica, sans-serif" font-weight="700" letter-spacing="2">FEATURES</text>
    <text x="889" y="428" fill="#19324D" font-size="28" font-family="Arial, Helvetica, sans-serif" font-weight="700">9x9 gameplay</text>
    <text x="889" y="464" fill="#5C738B" font-size="24" font-family="Arial, Helvetica, sans-serif">Built-in board for a longer</text>
    <text x="889" y="495" fill="#5C738B" font-size="24" font-family="Arial, Helvetica, sans-serif">Sudoku session inside the extension.</text>

    <rect x="854" y="548" width="320" height="168" rx="28" fill="#F7FAFF" stroke="#D7E5F7"/>
    <text x="889" y="594" fill="#2F7DE1" font-size="20" font-family="Arial, Helvetica, sans-serif" font-weight="700" letter-spacing="2">FLOW</text>
    <text x="889" y="641" fill="#19324D" font-size="28" font-family="Arial, Helvetica, sans-serif" font-weight="700">Popup mini game</text>
    <text x="889" y="675" fill="#19324D" font-size="28" font-family="Arial, Helvetica, sans-serif" font-weight="700">→ full board</text>

    <rect x="854" y="734" width="320" height="84" rx="24" fill="url(#cta)"/>
    <text x="924" y="787" fill="#FFFFFF" font-size="30" font-family="Arial, Helvetica, sans-serif" font-weight="700">Sudoku Play</text>
  </g>
</svg>
