<svg xmlns="http://www.w3.org/2000/svg" width="1280" height="800" viewBox="0 0 1280 800" role="img" aria-label="Sudoku Play extension launching the website from the toolbar">
  <rect width="1280" height="800" fill="#eef5fd"/>
  <circle cx="160" cy="146" r="140" fill="#dcecff"/>
  <circle cx="1120" cy="642" r="170" fill="#e3efff"/>
  <rect x="96" y="96" width="1088" height="608" rx="34" fill="#ffffff" stroke="#d0e0f2" stroke-width="2"/>
  <rect x="96" y="96" width="1088" height="86" rx="34" fill="#f7fbff"/>
  <circle cx="146" cy="139" r="10" fill="#ff6f7d"/>
  <circle cx="176" cy="139" r="10" fill="#ffc446"/>
  <circle cx="206" cy="139" r="10" fill="#6fd17a"/>
  <rect x="252" y="121" width="640" height="36" rx="18" fill="#edf5ff"/>
  <text x="280" y="145" fill="#5c738b" font-family="'SF Pro Text','Segoe UI',Arial,sans-serif" font-size="18">https://sudoku-play.org/</text>

  <rect x="838" y="114" width="56" height="56" rx="18" fill="#edf5ff" stroke="#d2e1f4"/>
  <path d="M866 126v32M850 142h32" fill="none" stroke="#9bb9de" stroke-width="2"/>
  <text x="860" y="138" fill="#173b63" font-family="'SF Pro Display','Segoe UI',Arial,sans-serif" font-size="11" font-weight="700">7</text>
  <text x="872" y="138" fill="#173b63" font-family="'SF Pro Display','Segoe UI',Arial,sans-serif" font-size="11" font-weight="700">3</text>
  <text x="860" y="152" fill="#173b63" font-family="'SF Pro Display','Segoe UI',Arial,sans-serif" font-size="11" font-weight="700">2</text>
  <text x="872" y="152" fill="#173b63" font-family="'SF Pro Display','Segoe UI',Arial,sans-serif" font-size="11" font-weight="700">1</text>

  <rect x="818" y="190" width="320" height="432" rx="34" fill="#ffffff" stroke="#d0e0f2" stroke-width="2"/>
  <text x="850" y="236" fill="#2f7de1" font-family="'SF Pro Text','Segoe UI',Arial,sans-serif" font-size="16" font-weight="700" letter-spacing="3">TOOLBAR POPUP</text>
  <text x="850" y="278" fill="#17324d" font-family="'SF Pro Display','Segoe UI',Arial,sans-serif" font-size="34" font-weight="800">Launch Sudoku Play</text>
  <rect x="850" y="314" width="256" height="70" rx="22" fill="#2f7de1"/>
  <text x="876" y="344" fill="#ffffff" font-family="'SF Pro Text','Segoe UI',Arial,sans-serif" font-size="24" font-weight="700">Play Sudoku</text>
  <text x="876" y="368" fill="#dfeeff" font-family="'SF Pro Text','Segoe UI',Arial,sans-serif" font-size="15">Open the main board in a new tab</text>
  <rect x="850" y="400" width="256" height="58" rx="18" fill="#ffffff" stroke="#d0e0f2"/>
  <text x="876" y="434" fill="#17324d" font-family="'SF Pro Text','Segoe UI',Arial,sans-serif" font-size="20" font-weight="700">Daily Sudoku</text>
  <rect x="850" y="472" width="256" height="58" rx="18" fill="#ffffff" stroke="#d0e0f2"/>
  <text x="876" y="506" fill="#17324d" font-family="'SF Pro Text','Segoe UI',Arial,sans-serif" font-size="20" font-weight="700">Kids Sudoku</text>

  <rect x="146" y="226" width="594" height="394" rx="30" fill="#f8fbff" stroke="#d0e0f2"/>
  <text x="180" y="270" fill="#2f7de1" font-family="'SF Pro Text','Segoe UI',Arial,sans-serif" font-size="18" font-weight="700" letter-spacing="3">WEBSITE RESULT</text>
  <text x="180" y="316" fill="#17324d" font-family="'SF Pro Display','Segoe UI',Arial,sans-serif" font-size="40" font-weight="800">Sudoku opens immediately in the full site UI</text>
  <rect x="180" y="348" width="350" height="220" rx="26" fill="#ffffff" stroke="#d0e0f2"/>
  <rect x="206" y="374" width="298" height="168" rx="20" fill="#edf5ff"/>
  <path d="M306 374v168M406 374v168M206 474h298" fill="none" stroke="#c0d6ef" stroke-width="2"/>
  <text x="244" y="430" fill="#173b63" font-family="'SF Pro Display','Segoe UI',Arial,sans-serif" font-size="34" font-weight="700">8</text>
  <text x="344" y="430" fill="#173b63" font-family="'SF Pro Display','Segoe UI',Arial,sans-serif" font-size="34" font-weight="700">3</text>
  <text x="444" y="430" fill="#173b63" font-family="'SF Pro Display','Segoe UI',Arial,sans-serif" font-size="34" font-weight="700">5</text>
  <text x="244" y="530" fill="#173b63" font-family="'SF Pro Display','Segoe UI',Arial,sans-serif" font-size="34" font-weight="700">2</text>
  <text x="344" y="530" fill="#173b63" font-family="'SF Pro Display','Segoe UI',Arial,sans-serif" font-size="34" font-weight="700">6</text>
  <text x="444" y="530" fill="#173b63" font-family="'SF Pro Display','Segoe UI',Arial,sans-serif" font-size="34" font-weight="700">1</text>
  <rect x="560" y="366" width="144" height="30" rx="15" fill="#e8f2ff"/>
  <rect x="560" y="418" width="118" height="30" rx="15" fill="#edf5ff"/>
  <rect x="560" y="470" width="152" height="30" rx="15" fill="#e8f2ff"/>
  <rect x="560" y="522" width="126" height="30" rx="15" fill="#edf5ff"/>
</svg>
