<svg xmlns="http://www.w3.org/2000/svg" viewBox="0 0 64 64" role="img" aria-label="Sudoku-Play.org kids icon">
  <defs>
    <style>
      .line{fill:none;stroke:#d67c88;stroke-linecap:round;stroke-linejoin:round}
      .num{fill:#163b63;font:700 15px/1 "Inter","Segoe UI",Arial,sans-serif}
      .soft{fill:#fff7f8}
      .tint{fill:#ffe7ea}
      .face{fill:none;stroke:#d84457;stroke-width:2.05;stroke-linecap:round;stroke-linejoin:round}
    </style>
  </defs>
  <rect x="8" y="8" width="48" height="48" rx="14" class="soft"/>
  <rect x="8" y="8" width="24" height="24" rx="14" class="tint"/>
  <rect x="32" y="32" width="24" height="24" rx="14" class="tint"/>
  <rect x="8" y="8" width="48" height="48" rx="14" class="line" stroke-width="1.8"/>
  <path d="M32 10v44M10 32h44" class="line" stroke-width="1.4"/>
  <text x="20" y="25" text-anchor="middle" class="num">9</text>
  <text x="44" y="49" text-anchor="middle" class="num">4</text>
  <circle cx="44" cy="20" r="6.5" class="face"/>
  <path d="M41.1 17.7h.1M46.9 17.7h.1" class="face"/>
  <path d="M41.1 22c1.6 2 4.2 2 5.8 0" class="face"/>
  <circle cx="20" cy="44" r="6.5" class="face"/>
  <path d="M17.2 41.8h.1" class="face"/>
  <path d="M21.8 41.3l1.9.8" class="face"/>
  <path d="M17 46.1c1.7 2 4.3 2 6 0" class="face"/>
</svg>
