<svg xmlns="http://www.w3.org/2000/svg" width="240" height="240" viewBox="0 0 240 240" fill="none">
  <g stroke="#d84457" stroke-width="1.2" stroke-linecap="round" stroke-linejoin="round" opacity=".1">
    <circle cx="48" cy="54" r="16"/>
    <path d="M42 49h.1M54 49h.1"/>
    <path d="M42 59c3.2 3.8 8.8 3.8 12 0"/>

    <circle cx="182" cy="62" r="13"/>
    <path d="M177 58h.1M187 58h.1"/>
    <path d="M177 66c2.6 3.2 7.4 3.2 10 0"/>

    <circle cx="78" cy="178" r="14"/>
    <path d="M73 174h.1M83 172l3 1.3"/>
    <path d="M72 183c3 3.5 8.1 3.5 11.1 0"/>

    <circle cx="190" cy="182" r="17"/>
    <path d="M184 177h.1M196 177h.1"/>
    <path d="M184 187c3.4 4.1 9.6 4.1 13 0"/>

    <rect x="100" y="28" width="42" height="42" rx="12"/>
    <path d="M121 30v38M102 49h38"/>

    <rect x="26" y="120" width="34" height="34" rx="10"/>
    <path d="M43 122v30M28 137h30"/>

    <rect x="134" y="120" width="46" height="46" rx="13"/>
    <path d="M157 122v42M136 143h42"/>

    <path d="M114 114h1M124 114h1M134 114h1"/>
    <path d="M110 194h1M120 194h1M130 194h1M140 194h1"/>
  </g>
</svg>
