<svg xmlns="http://www.w3.org/2000/svg" width="240" height="240" viewBox="0 0 240 240" fill="none">
  <g stroke="#ffffff" stroke-opacity="0.055" stroke-width="1.2" stroke-linecap="round">
    <rect x="24" y="26" width="30" height="30" rx="6"/>
    <path d="M34 26v30M44 26v30M24 36h30M24 46h30"/>
    <rect x="132" y="24" width="42" height="42" rx="8"/>
    <path d="M146 24v42M160 24v42M132 38h42M132 52h42"/>
    <rect x="150" y="154" width="36" height="36" rx="8"/>
    <path d="M152 112h12M158 106v12M164 112h12"/>
  </g>
  <g fill="#ffffff" fill-opacity="0.05" font-family="'SF Pro Text','Segoe UI',Arial,sans-serif" font-weight="600">
    <text x="86" y="58" font-size="22">5</text>
    <text x="174" y="70" font-size="18" transform="rotate(-8 174 70)">9</text>
    <text x="62" y="146" font-size="26" transform="rotate(7 62 146)">3</text>
    <text x="182" y="210" font-size="20">7</text>
    <text x="108" y="196" font-size="18" transform="rotate(-6 108 196)">2</text>
  </g>
  <g fill="#ffffff" fill-opacity="0.058" font-family="'SF Pro Text','Segoe UI',Arial,sans-serif" font-size="7.5" font-weight="700">
    <text x="138" y="36">8</text>
    <text x="165" y="36">2</text>
    <text x="151" y="49">4</text>
    <text x="137" y="63">1</text>
    <text x="165" y="63">9</text>
  </g>
  <g fill="#ffffff" fill-opacity="0.045">
    <circle cx="118" cy="86" r="2.6"/>
    <circle cx="128" cy="86" r="2.6"/>
    <circle cx="118" cy="96" r="2.6"/>
    <circle cx="128" cy="96" r="2.6"/>
    <circle cx="198" cy="132" r="2.2"/>
    <circle cx="206" cy="132" r="2.2"/>
    <circle cx="202" cy="140" r="2.2"/>
  </g>
</svg>
