<svg xmlns="http://www.w3.org/2000/svg" width="1400" height="560" viewBox="0 0 1400 560" role="img" aria-label="Sudoku Play browser extension promo banner">
  <defs>
    <linearGradient id="banner-bg" x1="0" x2="1" y1="0" y2="1">
      <stop offset="0" stop-color="#f8fbff"/>
      <stop offset="1" stop-color="#e8f2ff"/>
    </linearGradient>
  </defs>
  <rect width="1400" height="560" fill="url(#banner-bg)"/>
  <circle cx="108" cy="98" r="150" fill="#dcecff"/>
  <circle cx="1260" cy="430" r="180" fill="#dfeeff"/>
  <rect x="64" y="60" width="1272" height="440" rx="40" fill="#ffffff" opacity=".84"/>
  <text x="118" y="158" fill="#2f7de1" font-family="'SF Pro Text','Segoe UI',Arial,sans-serif" font-size="24" font-weight="700" letter-spacing="4">SUDOKU PLAY</text>
  <text x="118" y="228" fill="#17324d" font-family="'SF Pro Display','Segoe UI',Arial,sans-serif" font-size="70" font-weight="800">Sudoku Play Browser Extension</text>
  <text x="118" y="286" fill="#5c738b" font-family="'SF Pro Text','Segoe UI',Arial,sans-serif" font-size="30">Open Sudoku, Daily Sudoku, Kids Sudoku, and the Guide in one click from your browser toolbar.</text>
  <rect x="118" y="336" width="218" height="56" rx="28" fill="#2f7de1"/>
  <text x="152" y="373" fill="#ffffff" font-family="'SF Pro Text','Segoe UI',Arial,sans-serif" font-size="24" font-weight="700">Chrome</text>
  <rect x="356" y="336" width="206" height="56" rx="28" fill="#ffffff" stroke="#d0e0f2"/>
  <text x="392" y="373" fill="#17324d" font-family="'SF Pro Text','Segoe UI',Arial,sans-serif" font-size="24" font-weight="700">Opera</text>
  <rect x="582" y="336" width="224" height="56" rx="28" fill="#ffffff" stroke="#d0e0f2"/>
  <text x="618" y="373" fill="#17324d" font-family="'SF Pro Text','Segoe UI',Arial,sans-serif" font-size="24" font-weight="700">Firefox</text>

  <rect x="930" y="126" width="250" height="310" rx="32" fill="#ffffff" stroke="#d0e0f2"/>
  <text x="958" y="172" fill="#2f7de1" font-family="'SF Pro Text','Segoe UI',Arial,sans-serif" font-size="14" font-weight="700" letter-spacing="3">TOOLBAR POPUP</text>
  <rect x="958" y="204" width="194" height="58" rx="18" fill="#2f7de1"/>
  <text x="980" y="240" fill="#ffffff" font-family="'SF Pro Text','Segoe UI',Arial,sans-serif" font-size="22" font-weight="700">Play Sudoku</text>
  <rect x="958" y="278" width="194" height="46" rx="16" fill="#ffffff" stroke="#d0e0f2"/>
  <text x="980" y="307" fill="#17324d" font-family="'SF Pro Text','Segoe UI',Arial,sans-serif" font-size="18" font-weight="700">Daily Sudoku</text>
  <rect x="958" y="338" width="194" height="46" rx="16" fill="#ffffff" stroke="#d0e0f2"/>
  <text x="980" y="367" fill="#17324d" font-family="'SF Pro Text','Segoe UI',Arial,sans-serif" font-size="18" font-weight="700">Kids Sudoku</text>
  <rect x="958" y="398" width="194" height="46" rx="16" fill="#ffffff" stroke="#d0e0f2"/>
  <text x="980" y="427" fill="#17324d" font-family="'SF Pro Text','Segoe UI',Arial,sans-serif" font-size="18" font-weight="700">Guide</text>
</svg>
